<?xml version="1.0" standalone="no"?>
<!DOCTYPE svg PUBLIC "-//W3C//DTD SVG 20010904//EN"
 "http://www.w3.org/TR/2001/REC-SVG-20010904/DTD/svg10.dtd">
<svg version="1.0" xmlns="http://www.w3.org/2000/svg"
 width="30.000000pt" height="30.000000pt" viewBox="0 0 30.000000 30.000000"
 preserveAspectRatio="xMidYMid meet">

<g transform="translate(0.000000,30.000000) scale(0.100000,-0.100000)"
fill="#000000" stroke="none">
<path d="M0 150 l0 -150 150 0 150 0 0 72 0 71 -25 -23 c-26 -25 -47 -21 -25
5 11 13 9 15 -14 15 -14 0 -26 5 -26 10 0 6 12 10 26 10 23 0 25 2 14 15 -22
26 -1 30 25 5 l25 -23 0 71 0 72 -150 0 -150 0 0 -150z m208 63 l3 -53 -45 0
c-26 0 -46 -4 -46 -10 0 -5 20 -10 46 -10 l45 0 -3 -52 -3 -53 -85 0 -85 0 -3
104 c-1 58 0 111 2 118 4 10 26 13 88 11 l83 -3 3 -52z"/>
</g>
</svg>
