<svg width="22" height="21" viewBox="0 0 22 21" fill="none" xmlns="http://www.w3.org/2000/svg">
<path d="M0.505371 2.57547C0.505371 1.90316 0.740682 1.34851 1.21128 0.911532C1.68188 0.474532 2.29369 0.256042 3.04666 0.256042C3.78619 0.256042 4.38452 0.471164 4.84169 0.901448C5.31229 1.34516 5.5476 1.92333 5.5476 2.63598C5.5476 3.28138 5.31903 3.81921 4.86186 4.24949C4.39126 4.69321 3.77274 4.91506 3.00632 4.91506H2.98615C2.24661 4.91506 1.64828 4.69321 1.19111 4.24949C0.733946 3.80577 0.505371 3.24776 0.505371 2.57547ZM0.767567 20.2233V6.75044H5.24507V20.2233H0.767567ZM7.72585 20.2233H12.2033V12.7003C12.2033 12.2296 12.2571 11.8666 12.3647 11.6111C12.5529 11.154 12.8387 10.7674 13.2219 10.4514C13.6051 10.1354 14.0858 9.97746 14.664 9.97746C16.1699 9.97746 16.9229 10.9926 16.9229 13.023V20.2233H21.4004V12.4986C21.4004 10.5086 20.9298 8.99927 19.9886 7.97066C19.0473 6.94204 17.8036 6.42773 16.2573 6.42773C14.5228 6.42773 13.1715 7.17398 12.2033 8.66648V8.70682H12.1832L12.2033 8.66648V6.75044H7.72585C7.75273 7.1807 7.76618 8.51856 7.76618 10.7641C7.76618 13.0095 7.75273 16.1626 7.72585 20.2233Z" fill="white"/>
</svg>
