<svg width="21" height="21" viewBox="0 0 21 21" fill="none" xmlns="http://www.w3.org/2000/svg">
<path d="M6.82697 10.2396C6.82697 8.35464 8.35464 6.82614 10.2396 6.82614C12.1246 6.82614 13.6531 8.35464 13.6531 10.2396C13.6531 12.1246 12.1246 13.6531 10.2396 13.6531C8.35464 13.6531 6.82697 12.1246 6.82697 10.2396ZM4.98168 10.2396C4.98168 13.1436 7.33564 15.4976 10.2396 15.4976C13.1436 15.4976 15.4976 13.1436 15.4976 10.2396C15.4976 7.33564 13.1436 4.98168 10.2396 4.98168C7.33564 4.98168 4.98168 7.33564 4.98168 10.2396ZM14.4769 4.77325C14.4769 5.45148 15.0269 6.00234 15.706 6.00234C16.3842 6.00234 16.9351 5.45148 16.9351 4.77325C16.9351 4.09502 16.3851 3.54499 15.706 3.54499C15.0269 3.54499 14.4769 4.09502 14.4769 4.77325ZM6.10242 18.5744C5.1041 18.5289 4.56151 18.3627 4.20089 18.2221C3.72282 18.036 3.38205 17.8143 3.02309 17.4562C2.66495 17.098 2.44246 16.7573 2.25718 16.2792C2.11657 15.9186 1.95033 15.376 1.90483 14.3777C1.85521 13.2983 1.84528 12.9741 1.84528 10.2396C1.84528 7.5052 1.85604 7.1818 1.90483 6.10159C1.95033 5.10327 2.1174 4.56151 2.25718 4.20007C2.44328 3.722 2.66495 3.38123 3.02309 3.02226C3.38123 2.66412 3.722 2.44163 4.20089 2.25636C4.56151 2.11575 5.1041 1.9495 6.10242 1.90401C7.1818 1.85438 7.50602 1.84446 10.2396 1.84446C12.9741 1.84446 13.2975 1.85521 14.3777 1.90401C15.376 1.9495 15.9177 2.11657 16.2792 2.25636C16.7573 2.44163 17.098 2.66412 17.457 3.02226C17.8151 3.3804 18.0368 3.722 18.2229 4.20007C18.3635 4.56069 18.5297 5.10327 18.5752 6.10159C18.6249 7.1818 18.6348 7.5052 18.6348 10.2396C18.6348 12.9732 18.6249 13.2975 18.5752 14.3777C18.5297 15.376 18.3627 15.9186 18.2229 16.2792C18.0368 16.7573 17.8151 17.098 17.457 17.4562C17.0988 17.8143 16.7573 18.036 16.2792 18.2221C15.9186 18.3627 15.376 18.5289 14.3777 18.5744C13.2983 18.624 12.9741 18.634 10.2396 18.634C7.50602 18.634 7.1818 18.624 6.10242 18.5744M6.01805 0.0620333C4.92792 0.11166 4.18352 0.284526 3.53259 0.537622C2.85932 0.798988 2.28861 1.14968 1.71873 1.71873C1.14968 2.28779 0.798988 2.85849 0.537622 3.53259C0.284526 4.18352 0.11166 4.92792 0.0620333 6.01805C0.0115795 7.10984 0 7.45888 0 10.2396C0 13.0204 0.0115795 13.3694 0.0620333 14.4612C0.11166 15.5513 0.284526 16.2957 0.537622 16.9467C0.798988 17.6199 1.14886 18.1915 1.71873 18.7605C2.28779 19.3296 2.85849 19.6794 3.53259 19.9416C4.18435 20.1947 4.92792 20.3676 6.01805 20.4172C7.11067 20.4668 7.45888 20.4792 10.2396 20.4792C13.0212 20.4792 13.3694 20.4677 14.4612 20.4172C15.5513 20.3676 16.2957 20.1947 16.9467 19.9416C17.6199 19.6794 18.1906 19.3296 18.7605 18.7605C19.3296 18.1915 19.6794 17.6199 19.9416 16.9467C20.1947 16.2957 20.3684 15.5513 20.4172 14.4612C20.4668 13.3686 20.4784 13.0204 20.4784 10.2396C20.4784 7.45888 20.4668 7.10984 20.4172 6.01805C20.3676 4.92792 20.1947 4.18352 19.9416 3.53259C19.6794 2.85932 19.3296 2.28861 18.7605 1.71873C18.1915 1.14968 17.6199 0.798988 16.9475 0.537622C16.2957 0.284526 15.5513 0.110833 14.462 0.0620333C13.3702 0.0124067 13.0212 0 10.2405 0C7.45888 0 7.11067 0.0115795 6.01805 0.0620333" fill="white"/>
</svg>
